<?xml version="1.0" encoding="UTF-8"?>
<svg id="Layer_2" data-name="Layer 2" xmlns="http://www.w3.org/2000/svg" viewBox="0 0 108.76 124.22">
  <defs>
    <style>
      .cls-1 {
        fill: #69978b;
        stroke-width: 0px;
      }
    </style>
  </defs>
  <g id="Layer_1-2" data-name="Layer 1">
    <g>
      <g>
        <path class="cls-1" d="m1.64,67.94v-5.28h18.96v4.64l-7.12,6.76c.96.16,1.9.41,2.81.76.91.35,1.72.83,2.42,1.46.7.63,1.26,1.4,1.69,2.32s.64,2.03.64,3.34-.24,2.56-.71,3.68c-.47,1.12-1.14,2.09-2.01,2.92-.87.83-1.94,1.47-3.2,1.92s-2.66.68-4.21.68c-2.53,0-4.69-.45-6.46-1.34-1.77-.89-3.26-2.06-4.46-3.5l4.24-4.04c.96,1.09,1.97,1.93,3.02,2.5,1.05.57,2.3.86,3.74.86,1.17,0,2.13-.31,2.86-.92.73-.61,1.1-1.45,1.1-2.52,0-1.17-.47-2.07-1.42-2.68-.95-.61-2.3-.92-4.06-.92h-2.56l-.96-3.92,6.68-6.72H1.64Z"/>
        <path class="cls-1" d="m50.36,76.62c0,2.05-.3,3.96-.9,5.72-.6,1.76-1.45,3.29-2.54,4.6-1.09,1.31-2.41,2.33-3.94,3.08-1.53.75-3.23,1.12-5.1,1.12s-3.57-.37-5.1-1.1c-1.53-.73-2.84-1.75-3.92-3.06-1.08-1.31-1.91-2.83-2.5-4.58-.59-1.75-.88-3.65-.88-5.7s.3-3.93.9-5.7c.6-1.77,1.45-3.31,2.54-4.62s2.41-2.33,3.94-3.08,3.23-1.12,5.1-1.12,3.57.37,5.1,1.1c1.53.73,2.84,1.75,3.92,3.06s1.91,2.84,2.5,4.6c.59,1.76.88,3.65.88,5.68Zm-6.32.08c0-1.28-.15-2.47-.44-3.56-.29-1.09-.71-2.04-1.24-2.84-.53-.8-1.18-1.43-1.94-1.88-.76-.45-1.61-.68-2.54-.68s-1.77.22-2.52.66c-.75.44-1.39,1.05-1.92,1.84-.53.79-.94,1.73-1.22,2.82-.28,1.09-.42,2.28-.42,3.56s.15,2.47.44,3.56c.29,1.09.71,2.04,1.24,2.84.53.8,1.18,1.43,1.94,1.88.76.45,1.61.68,2.54.68s1.77-.22,2.52-.66c.75-.44,1.39-1.06,1.92-1.86.53-.8.94-1.74,1.22-2.82.28-1.08.42-2.26.42-3.54Z"/>
        <path class="cls-1" d="m79.56,76.62c0,2.05-.3,3.96-.9,5.72-.6,1.76-1.45,3.29-2.54,4.6-1.09,1.31-2.41,2.33-3.94,3.08-1.53.75-3.23,1.12-5.1,1.12s-3.57-.37-5.1-1.1c-1.53-.73-2.84-1.75-3.92-3.06-1.08-1.31-1.91-2.83-2.5-4.58-.59-1.75-.88-3.65-.88-5.7s.3-3.93.9-5.7c.6-1.77,1.45-3.31,2.54-4.62s2.41-2.33,3.94-3.08c1.53-.75,3.23-1.12,5.1-1.12s3.57.37,5.1,1.1c1.53.73,2.84,1.75,3.92,3.06s1.91,2.84,2.5,4.6c.59,1.76.88,3.65.88,5.68Zm-6.32.08c0-1.28-.15-2.47-.44-3.56-.29-1.09-.71-2.04-1.24-2.84-.53-.8-1.18-1.43-1.94-1.88-.76-.45-1.61-.68-2.54-.68s-1.77.22-2.52.66c-.75.44-1.39,1.05-1.92,1.84-.53.79-.94,1.73-1.22,2.82-.28,1.09-.42,2.28-.42,3.56s.15,2.47.44,3.56c.29,1.09.71,2.04,1.24,2.84.53.8,1.18,1.43,1.94,1.88.76.45,1.61.68,2.54.68s1.77-.22,2.52-.66c.75-.44,1.39-1.06,1.92-1.86.53-.8.94-1.74,1.22-2.82s.42-2.26.42-3.54Z"/>
        <path class="cls-1" d="m108.76,76.62c0,2.05-.3,3.96-.9,5.72-.6,1.76-1.45,3.29-2.54,4.6-1.09,1.31-2.41,2.33-3.94,3.08-1.53.75-3.23,1.12-5.1,1.12s-3.57-.37-5.1-1.1c-1.53-.73-2.84-1.75-3.92-3.06-1.08-1.31-1.91-2.83-2.5-4.58-.59-1.75-.88-3.65-.88-5.7s.3-3.93.9-5.7c.6-1.77,1.45-3.31,2.54-4.62s2.41-2.33,3.94-3.08c1.53-.75,3.23-1.12,5.1-1.12s3.57.37,5.1,1.1c1.53.73,2.84,1.75,3.92,3.06s1.91,2.84,2.5,4.6c.59,1.76.88,3.65.88,5.68Zm-6.32.08c0-1.28-.15-2.47-.44-3.56-.29-1.09-.71-2.04-1.24-2.84-.53-.8-1.18-1.43-1.94-1.88-.76-.45-1.61-.68-2.54-.68s-1.77.22-2.52.66c-.75.44-1.39,1.05-1.92,1.84-.53.79-.94,1.73-1.22,2.82-.28,1.09-.42,2.28-.42,3.56s.15,2.47.44,3.56c.29,1.09.71,2.04,1.24,2.84.53.8,1.18,1.43,1.94,1.88.76.45,1.61.68,2.54.68s1.77-.22,2.52-.66c.75-.44,1.39-1.06,1.92-1.86.53-.8.94-1.74,1.22-2.82s.42-2.26.42-3.54Z"/>
      </g>
      <g>
        <g>
          <path class="cls-1" d="m35.84,123.96h-2.02v-13.54h2.02v2.36c.89-1.47,2.3-2.64,4.63-2.64,3.27,0,5.18,2.2,5.18,5.42v8.41h-2.02v-7.91c0-2.51-1.36-4.08-3.74-4.08s-4.06,1.7-4.06,4.24v7.75Z"/>
          <path class="cls-1" d="m50.01,107.47v-2.23h2.3v2.23h-2.3Zm.13,16.5v-13.54h2.02v13.54h-2.02Z"/>
          <path class="cls-1" d="m59.57,120.11c0,1.65.92,2.25,2.28,2.25.68,0,1.26-.13,1.96-.47v1.73c-.71.37-1.47.58-2.44.58-2.17,0-3.82-1.07-3.82-3.82v-8.17h-1.89v-1.78h1.89v-4.08h2.02v4.08h4.29v1.78h-4.29v7.91Z"/>
          <path class="cls-1" d="m71.9,124.22c-1.94,0-4.08-.76-5.6-1.99l1.02-1.44c1.47,1.1,3.09,1.73,4.69,1.73s2.8-.84,2.8-2.15v-.05c0-1.36-1.6-1.88-3.38-2.38-2.12-.6-4.48-1.33-4.48-3.82v-.05c0-2.33,1.94-3.88,4.61-3.88,1.65,0,3.48.58,4.87,1.49l-.92,1.52c-1.26-.81-2.7-1.31-4.01-1.31-1.6,0-2.62.84-2.62,1.96v.05c0,1.28,1.68,1.78,3.48,2.33,2.09.63,4.35,1.44,4.35,3.88v.05c0,2.57-2.12,4.06-4.82,4.06Z"/>
        </g>
        <g>
          <path class="cls-1" d="m75.61,22.05c-.21.38-.35.86-.66,1.12-.34.29-.83.52-1.27.54-1.36.07-2.72.04-4.08.02-1.1-.02-1.93-.89-1.93-1.96,0-1.07.84-1.94,1.93-1.96,1.31-.02,2.63-.02,3.94,0,1.03,0,1.7.53,1.99,1.53.02.06.05.1.08.16,0,.19,0,.37,0,.56Z"/>
          <path class="cls-1" d="m53.53,43.58c-.11-.04-.22-.09-.33-.13-.8-.28-1.34-.96-1.35-1.81-.02-1.36-.02-2.72,0-4.08.02-1.09.89-1.94,1.96-1.93,1.07,0,1.94.84,1.96,1.94.02,1.31.02,2.63,0,3.94,0,1.03-.53,1.7-1.53,1.99-.06.02-.1.06-.16.08h-.56Z"/>
          <path class="cls-1" d="m54.06,31.67c-5.33.11-10-3.99-10.13-9.67-.13-5.46,4.11-9.91,9.59-10.12,5.41-.21,9.97,4.09,10.19,9.62.22,5.38-4.1,9.94-9.65,10.17Zm-.23-3.96c3.26,0,5.91-2.67,5.92-5.94,0-3.26-2.67-5.94-5.93-5.93-3.28,0-5.94,2.66-5.94,5.92,0,3.3,2.66,5.95,5.95,5.95Z"/>
          <path class="cls-1" d="m37.84,8.02c.06-1.03.42-1.65,1.15-1.99.73-.35,1.49-.3,2.08.25,1.06.99,2.09,2.01,3.07,3.08.68.74.58,1.89-.12,2.61-.72.73-1.88.84-2.64.14-1.07-.98-2.08-2.02-3.07-3.08-.28-.3-.37-.78-.47-1Z"/>
          <path class="cls-1" d="m67.56,5.81c1.01.05,1.64.4,1.99,1.13.35.73.31,1.49-.24,2.08-1,1.07-2.03,2.12-3.11,3.11-.74.68-1.9.56-2.6-.16-.71-.72-.82-1.86-.13-2.6.99-1.08,2.04-2.11,3.11-3.1.29-.27.76-.36.98-.45Z"/>
          <path class="cls-1" d="m69.79,35.52c-.04,1.06-.41,1.68-1.14,2.03-.73.35-1.49.3-2.08-.25-1.05-.98-2.07-1.99-3.05-3.05-.7-.75-.6-1.93.12-2.65.72-.72,1.9-.81,2.65-.11,1.04.97,2.04,1.98,3.01,3.02.29.32.4.8.5,1.01Z"/>
          <path class="cls-1" d="m40.06,37.76c-1.04-.03-1.66-.39-2.01-1.12-.35-.73-.31-1.48.24-2.08.99-1.06,2.01-2.1,3.08-3.08.73-.68,1.91-.58,2.61.12.71.7.83,1.88.16,2.61-.99,1.08-2.04,2.11-3.12,3.11-.29.27-.76.36-.96.44Z"/>
          <path class="cls-1" d="m51.84,3.96c0-.66-.01-1.33,0-1.99.03-1.12.9-1.98,1.98-1.96,1.07.01,1.93.85,1.95,1.95.02,1.34.02,2.69,0,4.03-.02,1.1-.89,1.94-1.96,1.94-1.07,0-1.94-.84-1.97-1.93-.02-.68,0-1.36,0-2.04Z"/>
          <path class="cls-1" d="m36,23.75c-.65,0-1.3.01-1.95,0-1.16-.02-2.02-.88-2.01-1.98,0-1.09.86-1.94,1.99-1.95,1.31-.02,2.63-.02,3.94,0,1.13.01,1.98.87,1.99,1.95,0,1.1-.85,1.96-2.02,1.98-.65.01-1.3,0-1.95,0Z"/>
        </g>
      </g>
    </g>
  </g>
</svg>